HIERARCHY
ROOT hip
{
  OFFSET 0 0 0
  CHANNELS 6 Xposition Yposition Zposition Zrotation Yrotation Xrotation
  JOINT abdomen
  {
    OFFSET 0 20.6881 -0.73152
    CHANNELS 3 Zrotation Xrotation Yrotation
    JOINT chest
    {
      OFFSET 0 11.7043 -0.48768
      CHANNELS 3 Zrotation Xrotation Yrotation
      JOINT neck
      {
        OFFSET 0 22.1894 -2.19456
        CHANNELS 3 Zrotation Xrotation Yrotation
        JOINT head
        {
          OFFSET -0.24384 7.07133 1.2192
          CHANNELS 3 Zrotation Xrotation Yrotation
          JOINT leftEye
          {
            OFFSET 4.14528 8.04674 8.04672
            CHANNELS 3 Zrotation Xrotation Yrotation
            End Site
            {
              OFFSET 1 0 0
            }
          }
          JOINT rightEye
          {
            OFFSET -3.6576 8.04674 8.04672
            CHANNELS 3 Zrotation Xrotation Yrotation
            End Site
            {
              OFFSET 1 0 0
            }
          }
        }
      }
      JOINT rCollar
      {
        OFFSET -2.68224 19.2634 -4.8768
        CHANNELS 3 Zrotation Xrotation Yrotation
        JOINT rShldr
        {
          OFFSET -8.77824 -1.95073 1.46304
          CHANNELS 3 Zrotation Xrotation Yrotation
          JOINT rForeArm
          {
            OFFSET -28.1742 -1.7115 0.48768
            CHANNELS 3 Zrotation Xrotation Yrotation
            JOINT rHand
            {
              OFFSET -22.5879 0.773209 7.07136
              CHANNELS 3 Zrotation Xrotation Yrotation
              JOINT rThumb1
              {
                OFFSET -1.2192 -0.487915 3.41376
                CHANNELS 3 Zrotation Xrotation Yrotation
                JOINT rThumb2
                {
                  OFFSET -3.37035 -0.52449 3.41376
                  CHANNELS 3 Zrotation Xrotation Yrotation
                  End Site
                  {
                    OFFSET -1.78271 -1.18214 1.43049
                  }
                }
              }
              JOINT rIndex1
              {
                OFFSET -7.75947 0.938293 5.60832
                CHANNELS 3 Zrotation Xrotation Yrotation
                JOINT rIndex2
                {
                  OFFSET -2.54057 -0.884171 1.56538
                  CHANNELS 3 Zrotation Xrotation Yrotation
                  End Site
                  {
                    OFFSET -1.62519 -0.234802 1.16502
                  }
                }
              }
              JOINT rMid1
              {
                OFFSET -8.24714 1.18213 3.41376
                CHANNELS 3 Zrotation Xrotation Yrotation
                JOINT rMid2
                {
                  OFFSET -3.10165 -0.590103 1.0647
                  CHANNELS 3 Zrotation Xrotation Yrotation
                  End Site
                  {
                    OFFSET -2.48547 -0.328903 0.83742
                  }
                }
              }
              JOINT rRing1
              {
                OFFSET -8.82822 0.546677 1.51678
                CHANNELS 3 Zrotation Xrotation Yrotation
                JOINT rRing2
                {
                  OFFSET -2.60934 -0.819778 -0.0198488
                  CHANNELS 3 Zrotation Xrotation Yrotation
                  End Site
                  {
                    OFFSET -2.33842 -0.294052 0.168128
                  }
                }
              }
              JOINT rPinky1
              {
                OFFSET -8.27202 -0.0477905 -0.4584
                CHANNELS 3 Zrotation Xrotation Yrotation
                JOINT rPinky2
                {
                  OFFSET -1.82734 -0.647385 -0.700984
                  CHANNELS 3 Zrotation Xrotation Yrotation
                  End Site
                  {
                    OFFSET -1.69225 -0.51767 -0.607171
                  }
                }
              }
            }
          }
        }
      }
      JOINT lCollar
      {
        OFFSET 2.68224 19.2634 -4.8768
        CHANNELS 3 Zrotation Xrotation Yrotation
        JOINT lShldr
        {
          OFFSET 8.77824 -1.95073 1.46304
          CHANNELS 3 Zrotation Xrotation Yrotation
          JOINT lForeArm
          {
            OFFSET 28.1742 -1.7115 0.48768
            CHANNELS 3 Zrotation Xrotation Yrotation
            JOINT lHand
            {
              OFFSET 22.5879 0.773209 7.07136
              CHANNELS 3 Zrotation Xrotation Yrotation
              JOINT lThumb1
              {
                OFFSET 1.2192 -0.487915 3.41376
                CHANNELS 3 Zrotation Xrotation Yrotation
                JOINT lThumb2
                {
                  OFFSET 3.37035 -0.52449 3.41376
                  CHANNELS 3 Zrotation Xrotation Yrotation
                  End Site
                  {
                    OFFSET 1.78271 -1.18214 1.43049
                  }
                }
              }
              JOINT lIndex1
              {
                OFFSET 7.75947 0.938293 5.60832
                CHANNELS 3 Zrotation Xrotation Yrotation
                JOINT lIndex2
                {
                  OFFSET 2.54057 -0.884171 1.56538
                  CHANNELS 3 Zrotation Xrotation Yrotation
                  End Site
                  {
                    OFFSET 1.62519 -0.234802 1.16502
                  }
                }
              }
              JOINT lMid1
              {
                OFFSET 8.24714 1.18213 3.41376
                CHANNELS 3 Zrotation Xrotation Yrotation
                JOINT lMid2
                {
                  OFFSET 3.10165 -0.590103 1.0647
                  CHANNELS 3 Zrotation Xrotation Yrotation
                  End Site
                  {
                    OFFSET 2.48547 -0.328903 0.83742
                  }
                }
              }
              JOINT lRing1
              {
                OFFSET 8.82822 0.546677 1.51678
                CHANNELS 3 Zrotation Xrotation Yrotation
                JOINT lRing2
                {
                  OFFSET 2.60934 -0.819778 -0.0198488
                  CHANNELS 3 Zrotation Xrotation Yrotation
                  End Site
                  {
                    OFFSET 2.33842 -0.294052 0.168128
                  }
                }
              }
              JOINT lPinky1
              {
                OFFSET 8.27202 -0.0477905 -0.4584
                CHANNELS 3 Zrotation Xrotation Yrotation
                JOINT lPinky2
                {
                  OFFSET 1.82734 -0.647385 -0.700984
                  CHANNELS 3 Zrotation Xrotation Yrotation
                  End Site
                  {
                    OFFSET 1.69225 -0.51767 -0.607171
                  }
                }
              }
            }
          }
        }
      }
    }
  }
  JOINT rButtock
  {
    OFFSET -8.77824 4.35084 1.2192
    CHANNELS 3 Zrotation Xrotation Yrotation
    JOINT rThigh
    {
      OFFSET 0 -1.70687 -2.19456
      CHANNELS 3 Zrotation Xrotation Yrotation
      JOINT rShin
      {
        OFFSET 0 -36.8199 0.73152
        CHANNELS 3 Zrotation Xrotation Yrotation
        JOINT rFoot
        {
          OFFSET 0.73152 -45.1104 -5.12064
          CHANNELS 3 Zrotation Xrotation Yrotation
          End Site
          {
            OFFSET -1.1221 -3.69964 12.103
          }
        }
      }
    }
  }
  JOINT lButtock
  {
    OFFSET 8.77824 4.35084 1.2192
    CHANNELS 3 Zrotation Xrotation Yrotation
    JOINT lThigh
    {
      OFFSET 0 -1.70687 -2.19456
      CHANNELS 3 Zrotation Xrotation Yrotation
      JOINT lShin
      {
        OFFSET 0 -36.8199 0.73152
        CHANNELS 3 Zrotation Xrotation Yrotation
        JOINT lFoot
        {
          OFFSET -0.73152 -45.1104 -5.12064
          CHANNELS 3 Zrotation Xrotation Yrotation
          End Site
          {
            OFFSET 1.1221 -3.69964 12.103
          }
        }
      }
    }
  }
}
MOTION
Frames:	6
Frame Time:	0.00833333
41.8763 54.6026 37.1436 158.312 -42.61 -145.568 8.84362 1.0005 5.92016 10.2226 -7.21943 1.92672 -4.33835 4.95802 3.09037 -2.37611 -47.0353 4.28746 -0.0 0.0 0.0 -0.0 0.0 0.0 2.51337e-13 3.14838e-13 -5.40545e-13 69.6676 -28.8894 41.807 -10.0605 -4.17822 17.915 -0.841022 -25.106 -3.77578 -4.22868e-09 2.58666e-09 -1.86528e-09 -7.25328e-09 4.3334e-09 -3.30709e-09 -4.22867e-09 2.58666e-09 -1.8653e-09 7.73091 5.47488 0.417314 -4.22868e-09 2.58666e-09 -1.86529e-09 2.90554 0.965183 0.102902 -4.22867e-09 2.58666e-09 -1.86528e-09 10.2786 0.731801 0.0259123 -4.22868e-09 2.58666e-09 -1.86528e-09 2.22167 -0.733487 -0.20892 2.51157e-13 3.14911e-13 -5.40744e-13 0.577047 -37.3371 -27.372 -27.9694 -30.4331 67.9403 0.318426 15.8512 -2.28697 -5.65586e-09 -2.13412e-08 4.16325e-09 -9.72564e-09 -3.68388e-08 7.25793e-09 -5.65587e-09 -2.13412e-08 4.16325e-09 -7.73091 5.47488 -0.417314 -5.65586e-09 -2.13412e-08 4.16325e-09 -2.90554 0.965183 -0.102902 -5.65586e-09 -2.13412e-08 4.16325e-09 -10.2786 0.731801 -0.0259123 -5.65586e-09 -2.13412e-08 4.16324e-09 -2.22167 -0.733487 0.20892 -2.03217e-16 0.0 -3.88251e-19 -28.6791 -33.4528 6.48281 0.0452562 31.8711 2.21099 5.4532 3.04182 -14.9785 2.03217e-16 0.0 3.88251e-19 -3.66032 13.0697 -3.78561 -0.17713 2.01416 -1.55554 -10.702 16.0355 21.9428
41.798 54.8631 36.6887 158.107 -43.2286 -145.203 8.50234 0.445702 5.64963 10.2396 -7.12792 1.82447 -4.44221 5.01926 2.83923 -2.498 -46.9705 3.74286 -0.0 0.0 0.0 -0.0 0.0 0.0 1.34922e-13 4.78843e-13 -5.72218e-13 70.6008 -30.2151 42.1331 -9.70675 -3.96217 17.2577 -0.744561 -23.7324 -3.54269 -3.59718e-09 2.09127e-09 -1.34939e-09 -6.17092e-09 3.49712e-09 -2.40122e-09 -3.59717e-09 2.09127e-09 -1.34941e-09 7.73091 5.47488 0.417314 -3.59718e-09 2.09127e-09 -1.34939e-09 2.90554 0.965183 0.102902 -3.59717e-09 2.09127e-09 -1.34939e-09 10.2786 0.731801 0.0259123 -3.59719e-09 2.09127e-09 -1.34938e-09 2.22167 -0.733487 -0.20892 1.34791e-13 4.78901e-13 -5.72398e-13 0.784641 -37.7606 -28.3857 -27.848 -29.7641 66.8451 0.329875 16.1398 -2.33072 -4.52287e-09 -1.65083e-08 3.45604e-09 -7.77794e-09 -2.84879e-08 6.01788e-09 -4.52288e-09 -1.65083e-08 3.45603e-09 -7.73091 5.47488 -0.417314 -4.52287e-09 -1.65083e-08 3.45603e-09 -2.90554 0.965183 -0.102902 -4.52287e-09 -1.65083e-08 3.45603e-09 -10.2786 0.731801 -0.0259123 -4.52286e-09 -1.65083e-08 3.45602e-09 -2.22167 -0.733487 0.20892 -2.03217e-16 0.0 -3.88251e-19 -28.5569 -32.6758 6.47774 0.052784 31.4126 2.23782 5.48424 3.1051 -15.0184 2.03217e-16 0.0 3.88251e-19 -3.23969 12.7436 -4.33582 -0.184593 2.66435 -1.61812 -10.9163 16.1015 22.157
41.7091 55.0102 36.262 157.869 -43.7568 -145.11 8.202 0.107054 5.38654 10.2036 -7.09878 1.7319 -4.40852 5.16026 2.61336 -2.95897 -47.1038 3.0444 -0.0 0.0 0.0 -0.0 0.0 0.0 -3.37871e-14 6.10256e-13 -5.11954e-13 71.4479 -31.65 42.3985 -9.40385 -3.78512 16.6916 -0.655774 -22.3944 -3.3195 -2.28406e-09 1.31901e-09 3.81156e-11 -3.92995e-09 2.22219e-09 2.48278e-11 -2.28405e-09 1.31901e-09 3.80952e-11 7.73091 5.47488 0.417314 -2.28405e-09 1.31901e-09 3.81088e-11 2.90554 0.965183 0.102902 -2.28404e-09 1.31901e-09 3.81111e-11 10.2786 0.731801 0.0259123 -2.28406e-09 1.31902e-09 3.81181e-11 2.22167 -0.733487 -0.20892 -3.38331e-14 6.10281e-13 -5.12128e-13 0.935739 -38.2816 -29.5721 -27.7044 -29.0559 65.6989 0.354053 16.7116 -2.41796 -2.46674e-09 -8.0077e-09 1.99604e-09 -4.24432e-09 -1.3808e-08 3.46534e-09 -2.46675e-09 -8.00771e-09 1.99603e-09 -7.73091 5.47488 -0.417314 -2.46674e-09 -8.0077e-09 1.99603e-09 -2.90554 0.965183 -0.102902 -2.46674e-09 -8.0077e-09 1.99603e-09 -10.2786 0.731801 -0.0259123 -2.46673e-09 -8.00769e-09 1.99602e-09 -2.22167 -0.733487 0.20892 -2.03217e-16 0.0 -3.88251e-19 -28.4924 -31.8471 6.36872 0.0603657 31.0583 2.27687 5.49598 3.05046 -14.7514 2.03217e-16 0.0 3.88251e-19 -2.61852 12.4812 -4.9867 -0.192292 3.35664 -1.69311 -11.0859 16.0955 22.2303
41.6357 55.0491 35.8459 157.511 -44.2663 -144.994 7.89892 -0.107351 5.15147 10.1524 -7.10098 1.65077 -4.32643 5.33129 2.40305 -3.50601 -47.3486 2.31298 -0.0 0.0 0.0 -0.0 0.0 0.0 -1.83209e-13 6.65537e-13 -4.00002e-13 72.1876 -33.0753 42.597 -9.15322 -3.64275 16.2227 -0.582811 -21.1986 -3.12394 -9.4584e-10 5.57656e-10 1.61542e-09 -1.64947e-09 9.73057e-10 2.77942e-09 -9.45823e-10 5.57645e-10 1.6154e-09 7.73091 5.47488 0.417314 -9.45825e-10 5.57646e-10 1.61541e-09 2.90554 0.965183 0.102902 -9.45816e-10 5.57645e-10 1.61541e-09 10.2786 0.731801 0.0259123 -9.45846e-10 5.57658e-10 1.61542e-09 2.22167 -0.733487 -0.20892 -1.83176e-13 6.65525e-13 -4.00183e-13 1.04368 -38.798 -30.8162 -27.5431 -28.3477 64.5829 0.381951 17.3225 -2.51208 -5.11738e-10 7.34934e-11 5.12667e-10 -8.85168e-10 1.44477e-10 8.74962e-10 -5.1175e-10 7.34806e-11 5.12665e-10 -7.73091 5.47488 -0.417314 -5.11737e-10 7.34941e-11 5.12663e-10 -2.90554 0.965183 -0.102902 -5.11746e-10 7.34948e-11 5.12663e-10 -10.2786 0.731801 -0.0259123 -5.11735e-10 7.34963e-11 5.12655e-10 -2.22167 -0.733487 0.20892 -2.03217e-16 0.0 -3.88251e-19 -28.4461 -31.0351 6.18352 0.0676523 30.7692 2.3215 5.48036 2.90926 -14.3208 2.03217e-16 0.0 3.88251e-19 -1.95628 12.2478 -5.66021 -0.2012 4.10313 -1.77824 -11.2524 16.0427 22.2853
41.5946 55.0181 35.4476 157.166 -44.9186 -144.814 7.54791 -0.289588 4.96531 10.1238 -7.10347 1.58286 -4.28577 5.48259 2.19866 -3.87865 -47.621 1.67497 -0.0 0.0 0.0 -0.0 0.0 0.0 -2.41763e-13 6.01143e-13 -2.76609e-13 72.7946 -34.3702 42.7095 -8.95577 -3.53054 15.8572 -0.530973 -20.2522 -2.97237 -2.39065e-10 9.49666e-11 2.70072e-09 -4.48604e-10 2.1415e-10 4.67093e-09 -2.39046e-10 9.49543e-11 2.7007e-09 7.73091 5.47488 0.417314 -2.39047e-10 9.49556e-11 2.70071e-09 2.90554 0.965183 0.102902 -2.39039e-10 9.49549e-11 2.70071e-09 10.2786 0.731801 0.0259123 -2.39071e-10 9.49698e-11 2.70072e-09 2.22167 -0.733487 -0.20892 -2.41697e-13 6.01107e-13 -2.76808e-13 1.13814 -39.2168 -31.9916 -27.3768 -27.6892 63.57 0.401698 17.729 -2.57521 3.17863e-10 3.64827e-09 -2.64667e-10 5.39121e-10 6.31324e-09 -4.78592e-10 3.17853e-10 3.64826e-09 -2.64667e-10 -7.73091 5.47488 -0.417314 3.17864e-10 3.64827e-09 -2.6467e-10 -2.90554 0.965183 -0.102902 3.17855e-10 3.64827e-09 -2.64671e-10 -10.2786 0.731801 -0.0259123 3.17866e-10 3.64827e-09 -2.64679e-10 -2.22167 -0.733487 0.20892 -2.03217e-16 0.0 -3.88251e-19 -28.3814 -30.3089 5.94797 0.0742006 30.5063 2.36518 5.42919 2.71303 -13.8698 2.03217e-16 0.0 3.88251e-19 -1.41255 12.0093 -6.27838 -0.212278 4.9159 -1.87128 -11.4574 15.9678 22.4449
41.5757 54.9283 35.075 156.923 -45.6507 -144.729 7.08835 -0.428568 4.83956 10.1287 -7.11099 1.53015 -4.30998 5.58482 1.98666 -4.00311 -47.8998 1.14419 -0.0 0.0 0.0 -0.0 0.0 0.0 -1.65754e-13 3.3326e-13 -1.08966e-13 73.2115 -35.5688 42.6872 -8.82294 -3.45451 15.6142 -0.498578 -19.616 -2.87189 -5.16605e-10 5.21264e-11 3.24255e-09 -9.33317e-10 1.44178e-10 5.60364e-09 -5.16587e-10 5.21146e-11 3.24253e-09 7.73091 5.47488 0.417314 -5.1659e-10 5.2117e-11 3.24254e-09 2.90554 0.965183 0.102902 -5.16583e-10 5.21163e-11 3.24255e-09 10.2786 0.731801 0.0259123 -5.1661e-10 5.21298e-11 3.24255e-09 2.22167 -0.733487 -0.20892 -1.65726e-13 3.33216e-13 -1.09207e-13 1.20716 -39.5454 -33.1622 -27.216 -27.0932 62.631 0.406994 17.8337 -2.59155 -7.55079e-10 -1.87293e-10 6.36824e-11 -1.30879e-09 -3.19324e-10 1.06366e-10 -7.55086e-10 -1.87292e-10 6.36852e-11 -7.73091 5.47488 -0.417314 -7.55078e-10 -1.8729e-10 6.36786e-11 -2.90554 0.965183 -0.102902 -7.55087e-10 -1.8729e-10 6.36767e-11 -10.2786 0.731801 -0.0259123 -7.55077e-10 -1.8729e-10 6.36666e-11 -2.22167 -0.733487 0.20892 -2.03217e-16 0.0 -3.88251e-19 -28.3225 -29.6358 5.63331 0.080132 30.2561 2.41348 5.32647 2.42508 -13.4047 2.03217e-16 0.0 3.88251e-19 -1.03054 11.7371 -6.87195 -0.228248 5.91866 -1.98688 -11.7427 15.8624 22.7673
